<svg width="32" height="32" viewBox="0 0 32 32" fill="none" xmlns="http://www.w3.org/2000/svg">
  <!-- SolCoder Logo - Simple S shape with gradient -->
  <rect width="32" height="32" rx="4" fill="#0E0E0E"/>
  <path d="M8 12C8 10.5 9 9 11 9H21C23 9 24 10 24 11.5C24 13 23 14 21 14H13C11 14 10 15 10 16.5C10 18 11 19 13 19H21C23 19 24 20 24 21.5C24 23 23 24 21 24H11C9 24 8 23 8 21.5"
        stroke="url(#gradient)"
        stroke-width="2.5"
        stroke-linecap="round"/>
  <defs>
    <linearGradient id="gradient" x1="8" y1="9" x2="24" y2="24" gradientUnits="userSpaceOnUse">
      <stop offset="0%" stop-color="#9945FF"/>
      <stop offset="100%" stop-color="#14F195"/>
    </linearGradient>
  </defs>
</svg>
